<svg width="48" height="48" viewBox="0 0 48 48" fill="none" xmlns="http://www.w3.org/2000/svg">
<path d="M32.9904 14.3616C32.808 14.1888 32.5248 14.1984 32.352 14.3808C28.3632 18.6144 24.384 22.8336 20.3904 27.072C20.2176 27.2544 19.9392 27.2592 19.7616 27.0816L15.5184 22.8384C15.3408 22.6608 15.0576 22.6608 14.88 22.8384L12.312 25.4064C12.1344 25.584 12.1344 25.8672 12.312 26.0448L19.9008 33.6336C20.0784 33.8112 20.3616 33.8064 20.5296 33.624C25.5744 28.272 30.6336 22.9104 35.7024 17.5344C35.8752 17.352 35.8656 17.0688 35.6832 16.896C34.7808 16.0464 33.888 15.2064 32.9904 14.3616ZM24 3C12.4032 3 3 12.4032 3 24C3 35.5968 12.4032 45 24 45C35.5968 45 45 35.5968 45 24C45 12.4032 35.5968 3 24 3ZM24 41.6928C14.232 41.6928 6.3072 33.768 6.3072 24C6.3072 14.232 14.232 6.3072 24 6.3072C33.768 6.3072 41.6928 14.232 41.6928 24C41.6928 33.768 33.768 41.6928 24 41.6928Z" fill="#030303"/>
</svg>
