<svg width="40" height="40" viewBox="0 0 40 40" fill="none" xmlns="http://www.w3.org/2000/svg">
<rect x="1" y="1" width="38" height="38" fill="#FBFF22" stroke="#030303" stroke-width="2"/>
<g clip-path="url(#clip0_11220_800)">
<path d="M30.3332 20C30.3332 20 29.4532 20.1667 27.8032 20.3333C26.1532 20.5 23.7365 20.6667 20.6665 20.6667C20.6665 26.8067 19.9998 30.3333 19.9998 30.3333C19.9998 30.3333 19.8332 29.4533 19.6665 27.8033C19.4998 26.1533 19.3332 23.7367 19.3332 20.6667C13.1932 20.6667 9.6665 20 9.6665 20C9.6665 20 10.5465 19.8333 12.1965 19.6667C13.8465 19.5 16.2632 19.3333 19.3332 19.3333C19.3332 13.1933 19.9998 9.66666 19.9998 9.66666C19.9998 9.66666 20.6665 13.1933 20.6665 19.3333C26.8065 19.3333 30.3332 20 30.3332 20Z" fill="#030303"/>
<path d="M20.6665 18.6666C22.6665 16 24.6665 15.3333 24.6665 15.3333C23.8072 16.8578 22.6777 18.2132 21.3332 19.3333" fill="#030303"/>
<path d="M18.6666 19.3333C15.9999 17.3333 15.3333 15.3333 15.3333 15.3333C16.8577 16.1926 18.2132 17.3221 19.3333 18.6666" fill="#030303"/>
<path d="M19.3333 21.3333C17.3333 24 15.3333 24.6667 15.3333 24.6667C16.1925 23.1422 17.322 21.7868 18.6666 20.6667" fill="#030303"/>
<path d="M21.3332 20.6667C23.9998 22.6667 24.6665 24.6667 24.6665 24.6667C23.142 23.8074 21.7866 22.6779 20.6665 21.3333" fill="#030303"/>
<path d="M19.9999 21.6666C20.9204 21.6666 21.6666 20.9205 21.6666 20C21.6666 19.0795 20.9204 18.3333 19.9999 18.3333C19.0794 18.3333 18.3333 19.0795 18.3333 20C18.3333 20.9205 19.0794 21.6666 19.9999 21.6666Z" fill="#030303"/>
</g>
<defs>
<clipPath id="clip0_11220_800">
<rect width="21.3333" height="21.3333" fill="white" transform="translate(9.33325 9.33331)"/>
</clipPath>
</defs>
</svg>
