<svg width="18" height="18" viewBox="0 0 18 18" fill="none" xmlns="http://www.w3.org/2000/svg">
<g clip-path="url(#clip0_96_4888)">
<path d="M16.2018 4.5738V4.5936L12.069 0.4608H12.0798L11.628 0.0108H11.412C11.3274 -0.0036 11.2464 -0.0036 11.1618 0.0108H3.546C2.3202 0.0108 1.314 1.0152 1.314 2.2446V15.768C1.314 16.9956 2.3202 18 3.546 18H14.4648C15.6942 18 16.6986 16.9956 16.6986 15.7662V5.0688L16.2018 4.5738ZM14.8374 14.5404C14.8374 15.3594 14.1678 16.029 13.3488 16.029H4.6638C3.8448 16.029 3.1752 15.3594 3.1752 14.5404V3.4704C3.1752 2.6514 3.8448 1.9818 4.6638 1.9818H8.7588V4.6638H5.31539C4.9068 4.6638 4.572 4.9986 4.572 5.4072V6.0894C4.572 6.498 4.9086 6.8346 5.31539 6.8346H8.865C8.99279 7.0596 9.22859 7.2216 9.50579 7.2216H14.841L14.8374 14.5404ZM11.2572 5.5944C10.8702 5.5944 10.5516 5.2776 10.5516 4.8888V1.1664C10.5516 1.0836 10.575 1.008 10.6002 0.9342C10.6344 1.0476 10.6884 1.1556 10.7766 1.2438L15.1272 5.5944H11.2572ZM12.6972 11.3634H5.31539C4.9068 11.3634 4.572 11.6982 4.572 12.1068V12.789C4.572 13.1976 4.9086 13.5342 5.31539 13.5342H12.6972C13.1076 13.5342 13.4424 13.1976 13.4424 12.789V12.1068C13.4424 11.6982 13.1058 11.3634 12.6972 11.3634ZM4.5702 8.7588V9.441C4.5702 9.8514 4.9068 10.1844 5.3136 10.1844H12.6954C13.1058 10.1844 13.4406 9.8496 13.4406 9.441V8.7588C13.4406 8.3484 13.104 8.0136 12.6954 8.0136H5.31539C4.9068 8.0118 4.5702 8.3484 4.5702 8.7588Z" fill="black"/>
</g>
<defs>
<clipPath id="clip0_96_4888">
<rect width="18" height="18" fill="white"/>
</clipPath>
</defs>
</svg>
