<svg width="19" height="19" viewBox="0 0 19 19" fill="none" xmlns="http://www.w3.org/2000/svg">
<g clip-path="url(#clip0_96_4880)">
<path d="M15.2038 13.3703C15.0651 13.2316 15.0461 12.9922 15.1525 12.8269C15.9885 11.5406 16.4787 10.0092 16.4787 8.36381C16.4787 3.81901 12.7813 0.123505 8.2403 0.123505C3.6955 0.123505 0 3.81901 0 8.36381C0 12.9067 3.6955 16.6022 8.2403 16.6022C10.0092 16.6022 11.647 16.0341 12.9922 15.0803C13.1499 14.9663 13.3874 14.9815 13.5261 15.1183L16.4711 18.0633C16.4901 18.0823 16.511 18.1013 16.5319 18.1165C16.5661 18.145 16.7086 18.278 16.8454 18.4167L17.195 18.7644C17.3337 18.9012 17.5579 18.9012 17.6947 18.7644L18.8955 17.5636C19.0342 17.4249 19.0342 17.2007 18.8974 17.062L15.2038 13.3703ZM13.224 12.2018C12.9523 12.5552 12.6464 12.8782 12.3082 13.1651C11.21 14.098 9.7907 14.6642 8.2403 14.6642C4.7652 14.6642 1.938 11.837 1.938 8.36381C1.938 4.8906 4.7652 2.0615 8.2403 2.0615C11.7135 2.0615 14.5407 4.88871 14.5407 8.36381C14.5407 9.80781 14.0448 11.1378 13.224 12.2018Z" fill="#FBFF22"/>
</g>
<defs>
<clipPath id="clip0_96_4880">
<rect width="19" height="19" fill="white"/>
</clipPath>
</defs>
</svg>
